<svg id="Layer_1" data-name="Layer 1" xmlns="http://www.w3.org/2000/svg" viewBox="0 0 46.66 115.54"><defs><style>.cls-1{fill:#d1d3d4;}.cls-2,.cls-5{fill:#fff;}.cls-3{fill:#231f20;}.cls-4{fill:none;stroke:#6d6e71;stroke-miterlimit:10;}.cls-5{font-size:12px;font-family:MyriadPro-Regular, Myriad Pro;}</style></defs><rect class="cls-1" x="8.33" y="91.28" width="30" height="18.89"/><rect class="cls-1" x="8.33" y="74.43" width="30" height="16.85"/><rect class="cls-2" x="8.33" y="57.58" width="30" height="16.85"/><rect class="cls-2" x="8.33" y="40.73" width="30" height="16.85"/><rect class="cls-2" x="8.33" y="23.87" width="30" height="16.86"/><rect class="cls-3" x="8.33" y="6.9" width="30" height="16.97"/><polygon class="cls-4" points="38.33 91.28 38.33 110.17 8.33 110.17 8.33 91.28 8.33 74.44 8.33 57.59 8.33 40.73 8.33 23.88 8.33 6.91 38.33 6.91 38.33 23.88 38.33 40.73 38.33 57.59 38.33 74.44 38.33 91.28"/><line class="cls-4" x1="8.33" y1="23.87" x2="38.33" y2="23.87"/><line class="cls-4" x1="8.33" y1="40.73" x2="38.33" y2="40.73"/><line class="cls-4" x1="8.33" y1="57.58" x2="38.33" y2="57.58"/><line class="cls-4" x1="8.33" y1="74.43" x2="38.33" y2="74.43"/><line class="cls-4" x1="8.33" y1="91.28" x2="38.33" y2="91.28"/><text class="cls-5" transform="translate(19.3 18.81)">A</text></svg>