<svg id="Layer_1" data-name="Layer 1" xmlns="http://www.w3.org/2000/svg" viewBox="0 0 587.62 317.79"><defs><style>.cls-1{fill:#d1d3d4;}.cls-2,.cls-5,.cls-6{fill:#fff;}.cls-3,.cls-7,.cls-9{fill:#231f20;}.cls-4,.cls-8{fill:none;}.cls-4{stroke:#6d6e71;}.cls-4,.cls-6,.cls-8{stroke-miterlimit:10;}.cls-5{font-size:24.22px;}.cls-5,.cls-7,.cls-9{font-family:MyriadPro-Regular, Myriad Pro;}.cls-6,.cls-8{stroke:#231f20;}.cls-7{font-size:15.92px;}.cls-9{font-size:12px;}.cls-10{letter-spacing:-0.01em;}.cls-11{letter-spacing:0em;}.cls-12{letter-spacing:-0.01em;}.cls-13{letter-spacing:-0.01em;}.cls-14{letter-spacing:0em;}.cls-15{letter-spacing:-0.01em;}.cls-16{letter-spacing:0em;}.cls-17{letter-spacing:0em;}.cls-18{letter-spacing:-0.01em;}</style></defs><rect class="cls-1" x="332.33" y="162.17" width="38.12" height="60.55"/><rect class="cls-1" x="298.33" y="162.17" width="34.01" height="60.55"/><rect class="cls-2" x="264.32" y="162.17" width="34.01" height="60.55"/><rect class="cls-2" x="230.31" y="162.17" width="34.01" height="60.55"/><rect class="cls-2" x="196.28" y="162.17" width="34.03" height="60.55"/><rect class="cls-3" x="162.03" y="162.17" width="34.25" height="60.55"/><polygon class="cls-4" points="332.33 162.17 370.46 162.17 370.46 222.72 332.33 222.72 298.33 222.72 264.32 222.72 230.31 222.72 196.28 222.72 162.03 222.72 162.03 162.17 196.28 162.17 230.31 162.17 264.32 162.17 298.33 162.17 332.33 162.17"/><line class="cls-4" x1="196.28" y1="222.72" x2="196.28" y2="162.17"/><line class="cls-4" x1="230.31" y1="222.72" x2="230.31" y2="162.17"/><line class="cls-4" x1="264.32" y1="222.72" x2="264.32" y2="162.17"/><line class="cls-4" x1="298.33" y1="222.72" x2="298.33" y2="162.17"/><line class="cls-4" x1="332.33" y1="222.72" x2="332.33" y2="162.17"/><text class="cls-5" transform="translate(172.54 200.58)">A</text><path class="cls-6" d="M298.32,158.55s-11.32-10.36-21.41-6-28.45,2.94-29.6-9.79"/><path class="cls-6" d="M196.29,158.55s11.32-10.36,21.42-6,28.45,2.94,29.6-9.79"/><path class="cls-6" d="M370.46,158.55s-8-10.36-15.14-6-20.12,2.94-20.93-9.79"/><path class="cls-6" d="M298.32,158.55s8-10.36,15.15-6,20.11,2.94,20.92-9.79"/><text class="cls-7" transform="translate(240.9 137.92) scale(1.11 1)">m</text><text class="cls-7" transform="translate(326.89 137.92) scale(1.11 1)">m*</text><rect class="cls-8" x="398.81" y="22.47" width="180.26" height="96.51"/><text class="cls-9" transform="translate(414.99 49.09)">A</text><text class="cls-9" transform="translate(414.99 74.07)">m</text><text class="cls-9" transform="translate(414.17 99.8)">m*</text><text class="cls-9" transform="translate(436.9 49.09)">- si<tspan class="cls-10" x="13.79" y="0">t</tspan><tspan class="cls-11" x="17.69" y="0">e o</tspan><tspan class="cls-12" x="32.83" y="0">c</tspan><tspan x="38.14" y="0">cupied </tspan><tspan class="cls-13" x="75.08" y="0">b</tspan><tspan x="81.83" y="0">y age</tspan><tspan class="cls-14" x="108.53" y="0">n</tspan><tspan x="115.14" y="0">t</tspan></text><text class="cls-9" transform="translate(436.54 74.07)">- in <tspan class="cls-15" x="18.24" y="0">r</tspan><tspan x="22.1" y="0">ange local si</tspan><tspan class="cls-12" x="83.33" y="0">t</tspan><tspan x="87.23" y="0">es</tspan></text><text class="cls-9" transform="translate(436.18 99.8)">- out of <tspan class="cls-16" x="38.58" y="0">r</tspan><tspan class="cls-17" x="42.44" y="0">ange </tspan><tspan class="cls-18" x="70.15" y="0">r</tspan><tspan class="cls-11" x="73.95" y="0">emo</tspan><tspan class="cls-10" x="96.56" y="0">t</tspan><tspan x="100.46" y="0">e si</tspan><tspan class="cls-12" x="116.58" y="0">t</tspan><tspan x="120.48" y="0">es</tspan></text></svg>